<svg fill="none" height="24" viewBox="0 0 24 24" width="24" xmlns="http://www.w3.org/2000/svg"><g fill="#292d32"><path d="m16.8311 15.6402c.67-.44 1.55.04 1.55.84v1.29c0 1.27-.99 2.63-2.18 3.03l-3.19 1.06c-.56.19-1.47.19-2.02 0l-3.19001-1.06c-1.2-.4-2.18-1.76-2.18-3.03v-1.3c0-.79.88-1.27 1.54-.84l2.06 1.34c.79001.53 1.79001.79 2.79001.79s2-.26 2.79-.79z"/><path d="m19.9795 6.45859-5.99-3.93c-1.08-.71-2.86-.71-3.94 0l-6.01997 3.93c-1.93 1.25-1.93 4.08001 0 5.34001l1.6 1.04 4.41997 2.88c1.08.71 2.86.71 3.94 0l4.39-2.88 1.37-.9v3.06c0 .41.34.75.75.75s.75-.34.75-.75v-4.92c.4-1.29001-.01-2.79001-1.27-3.62001z"/></g></svg>